
        <svg xmlns="http://www.w3.org/2000/svg" xmlns:xlink="http://www.w3.org/1999/xlink" version="1.1" width="3171.4285714285716" 
        height="1407.1699776691012" viewBox="0 0 3171.4285714285716 1407.1699776691012">
			<rect fill="#0c056d" width="3171.4285714285716" height="1407.1699776691012"/>
			<g transform="scale(8.571428571428571) translate(10, 10)">
				<defs id="SvgjsDefs1192"><linearGradient id="SvgjsLinearGradient1197"><stop id="SvgjsStop1198" stop-color="#ef4136" offset="0"></stop><stop id="SvgjsStop1199" stop-color="#fbb040" offset="1"></stop></linearGradient></defs><g id="SvgjsG1193" transform="matrix(2.1875,0,0,2.1875,105,-35.27781009674072)" fill="url(#SvgjsLinearGradient1197)"><g xmlns="http://www.w3.org/2000/svg" display="none"><rect x="-185.515" y="-323.283" display="inline" fill="url(#SvgjsLinearGradient1197)" width="815.231" height="398.286"></rect></g><g xmlns="http://www.w3.org/2000/svg"><path d="M22.913,22.543c-1.365,0-2.477,1.108-2.477,2.471c0,1.361,1.111,2.47,2.477,2.47c1.366,0,2.478-1.108,2.478-2.47   C25.391,23.652,24.279,22.543,22.913,22.543z"></path><path d="M55.099,16.128c-4.909,0-8.902,3.986-8.902,8.886c0,2.104,0.74,4.036,1.969,5.56l-5.129,5.162   c-1.074-0.739-2.373-1.175-3.774-1.175c-1.535,0-2.946,0.526-4.074,1.399l-5.346-5.382c1.231-1.524,1.973-3.459,1.973-5.565   c0-4.899-3.993-8.886-8.902-8.886c-4.908,0-8.901,3.986-8.901,8.886c0,2.088,0.73,4.005,1.942,5.523l-5.34,5.328   c-1.106-0.816-2.469-1.304-3.947-1.304C2.991,34.562,0,37.547,0,41.217c0,3.669,2.991,6.654,6.667,6.654s6.666-2.985,6.666-6.654   c0-1.474-0.488-2.834-1.304-3.938l5.339-5.327c1.523,1.215,3.449,1.947,5.546,1.947c2.078,0,3.988-0.72,5.505-1.916l5.388,5.423   c-0.759,1.081-1.209,2.393-1.209,3.811c0,3.669,2.99,6.654,6.666,6.654s6.667-2.985,6.667-6.654c0-1.552-0.539-2.978-1.435-4.111   l5.093-5.127c1.517,1.198,3.429,1.92,5.51,1.92c4.908,0,8.901-3.985,8.901-8.885S60.007,16.128,55.099,16.128z M6.656,43.328   c-1.168,0-2.118-0.947-2.118-2.111c0-1.165,0.95-2.112,2.118-2.112c1.169,0,2.119,0.948,2.119,2.112   C8.775,42.381,7.825,43.328,6.656,43.328z M22.913,29.484c-2.469,0-4.477-2.005-4.477-4.47s2.008-4.471,4.477-4.471   s4.478,2.006,4.478,4.471S25.382,29.484,22.913,29.484z M39.263,43.328c-1.168,0-2.118-0.947-2.118-2.111   c0-1.165,0.95-2.112,2.118-2.112c1.169,0,2.119,0.948,2.119,2.112C41.382,42.381,40.432,43.328,39.263,43.328z M55.099,29.484   c-2.469,0-4.478-2.005-4.478-4.47s2.009-4.471,4.478-4.471s4.477,2.006,4.477,4.471S57.567,29.484,55.099,29.484z"></path><path d="M55.099,22.543c-1.366,0-2.478,1.108-2.478,2.471c0,1.361,1.111,2.47,2.478,2.47c1.365,0,2.477-1.108,2.477-2.47   C57.575,23.652,56.464,22.543,55.099,22.543z"></path></g></g><g id="SvgjsG1194" transform="matrix(2.8770591422318392,0,0,2.8770591422318392,-2.877059828176192,85.65044870795052)" fill="#d9d9d9"><path d="M13.8 15.46 q0 1.46 -0.88 2.6 q-0.86 1.08 -2.37 1.68 t-3.41 0.6 q-1.74 0 -3.38 -0.81 t-2.76 -2.25 l1.56 -1.46 q1.94 2.34 4.58 2.34 q1.16 0 2.12 -0.28 q1.06 -0.32 1.64 -0.9 q0.66 -0.64 0.66 -1.52 q0 -1.06 -0.66 -1.6 q-0.56 -0.46 -1.66 -0.6 q-0.64 -0.08 -2.1 -0.08 q-2.68 0 -4.09 -0.98 t-1.41 -2.88 q0 -1.2 0.71 -2.28 t1.95 -1.72 q1.28 -0.68 2.84 -0.68 q1.76 0 3.18 0.54 q1.52 0.58 2.82 1.82 l-1.36 1.6 q-1.22 -0.98 -2.22 -1.37 t-2.42 -0.39 q-0.82 0 -1.53 0.34 t-1.13 0.91 t-0.42 1.21 q0 1.72 3.18 1.72 q2.54 0 4.02 0.52 q1.4 0.5 2 1.52 q0.54 0.9 0.54 2.4 z M23.912000000000003 11.64 q1.34 -1.4 2.42 -3.12 t1.72 -3.44 l2.5 0 q-1.02 2.38 -2.48 4.56 q-1.32 1.98 -3.08 3.9 l0 6.46 l-2.16 0 l0 -6.46 q-1.76 -1.92 -3.08 -3.9 q-1.46 -2.18 -2.48 -4.56 l2.5 0 q0.64 1.72 1.72 3.44 t2.42 3.12 z M47.964 9.74 l-5.1 6.1 l-5.06 -6.1 l0 10.26 l-2.14 0 l0 -12.82 l-1.74 -2.1 l2.82 0 l6.1 7.32 l6.18 -7.32 l2.82 0 l-1.74 2.1 l0 12.82 l-2.14 0 l0 -10.26 z M59.076 7.279999999999999 l0 4.56 q0.62 -0.36 1.4 -0.5 q0.58 -0.1 1.44 -0.1 l2.56 0 q1.04 0 1.63 -0.52 t0.59 -1.54 q0 -1.9 -2.22 -1.9 l-5.4 0 z M59.076 14.059999999999999 l0 3.76 l5.62 0 q0.66 0 1.26 -0.24 q0.66 -0.24 1.04 -0.7 q0.44 -0.54 0.44 -1.24 q0 -1.2 -0.94 -1.74 q-0.74 -0.44 -2.02 -0.44 l-2.56 0 q-1.72 0 -2.84 0.6 z M69.596 15.92 q0 1.4 -0.78 2.38 q-0.68 0.86 -1.92 1.3 q-1.1 0.4 -2.42 0.4 l-7.56 0 l0 -14.92 l7.56 0 q1.28 0 2.27 0.48 t1.55 1.38 q0.58 0.94 0.58 2.22 q0 0.98 -0.35 1.75 t-0.99 1.19 q0.86 0.4 1.42 1.32 q0.64 1.06 0.64 2.5 z M79.828 6.66 l-0.82 -1.84 l2.4 0 l7.18 15.18 l-2.44 0 l-0.98 -2.18 l-4.54 0 q-1.28 0 -2.3 0.24 q-0.9 0.22 -1.5 0.58 q-0.54 0.32 -0.72 0.66 l-0.38 0.7 l-2.36 0 z M81.428 15.620000000000001 l2.76 0 l-3.26 -6.3 l-3.3 7.14 q0.44 -0.38 1.34 -0.6 q1.02 -0.24 2.46 -0.24 z M104.46 7.279999999999999 l-5.26 0 l0 12.72 l-2.12 0 l0 -12.72 l-5.32 0 l0 -2.2 l12.7 0 l0 2.2 z M113.892 6.66 l-0.82 -1.84 l2.4 0 l7.18 15.18 l-2.44 0 l-0.98 -2.18 l-4.54 0 q-1.28 0 -2.3 0.24 q-0.9 0.22 -1.5 0.58 q-0.54 0.32 -0.72 0.66 l-0.38 0.7 l-2.36 0 z M115.49199999999999 15.620000000000001 l2.76 0 l-3.26 -6.3 l-3.3 7.14 q0.44 -0.38 1.34 -0.6 q1.02 -0.24 2.46 -0.24 z"></path></g>
			</g>
		</svg>
	