<svg xmlns="http://www.w3.org/2000/svg" version="1.1" xmlns:xlink="http://www.w3.org/1999/xlink" xmlns:svgjs="http://svgjs.dev/svgjs" width="2000" height="712" viewBox="0 0 2000 712"><g transform="matrix(1,0,0,1,-1.212121176275332,0.9942243274701923)"><svg viewBox="0 0 396 141" data-background-color="#003366" preserveAspectRatio="xMidYMid meet" height="712" width="2000" xmlns="http://www.w3.org/2000/svg" xmlns:xlink="http://www.w3.org/1999/xlink"><g id="tight-bounds" transform="matrix(1,0,0,1,0.24000000709747837,-0.1968899300186706)"><svg viewBox="0 0 395.52 141.39377986003734" height="141.39377986003734" width="395.52"><g><svg viewBox="0 0 683.7464250754098 244.43135999999998" height="141.39377986003734" width="395.52"><g transform="matrix(1,0,0,1,0,85.11316633879781)"><svg viewBox="0 0 395.52 74.20502732240436" height="74.20502732240436" width="395.52"><g id="textblocktransform"><svg viewBox="0 0 395.52 74.20502732240436" height="74.20502732240436" width="395.52" id="textblock"><g><svg viewBox="0 0 395.52 74.20502732240436" height="74.20502732240436" width="395.52"><g transform="matrix(1,0,0,1,0,0)"><svg width="395.52" viewBox="0.550000011920929 -35.29999923706055 192.13999938964844 36.04999923706055" height="74.20502732240436" data-palette-color="#ffffff"><path d="M12.75-35.3Q16.05-35.3 18.53-34.25 21-33.2 23.1-31.05L23.1-31.05 20-27.5Q18.35-28.95 16.7-29.65 15.05-30.35 13.15-30.35L13.15-30.35Q11.05-30.35 9.78-29.25 8.5-28.15 8.5-26.2L8.5-26.2Q8.5-24.9 9.03-24 9.55-23.1 10.9-22.33 12.25-21.55 14.8-20.65L14.8-20.65Q19.45-18.95 21.73-16.6 24-14.25 24-9.85L24-9.85Q24-6.8 22.55-4.4 21.1-2 18.38-0.63 15.65 0.75 12 0.75L12 0.75Q5.15 0.75 0.55-3.95L0.55-3.95 3.85-7.6Q5.75-5.95 7.63-5.1 9.5-4.25 11.75-4.25L11.75-4.25Q14.3-4.25 15.78-5.65 17.25-7.05 17.25-9.5L17.25-9.5Q17.25-11.7 16-12.98 14.75-14.25 11.25-15.45L11.25-15.45Q6.25-17.2 4.05-19.6 1.85-22 1.85-25.75L1.85-25.75Q1.85-28.5 3.25-30.68 4.65-32.85 7.15-34.08 9.65-35.3 12.75-35.3L12.75-35.3ZM44.95-34.55L51.65-34.55 41.65-13.1 41.65 0 35.15 0 35.15-13.05 25.2-34.55 32.15-34.55 38.55-18.4 44.95-34.55ZM82.8-34.55L85.2 0 79 0 78.25-14.55Q77.84-22.95 77.84-26.5L77.84-26.5 77.9-28.6 72.45-3.75 66.4-3.75 60.65-28.65Q60.7-27.1 60.7-24L60.7-24Q60.7-18.75 60.5-14.35L60.5-14.35 59.8 0 53.65 0 56.05-34.55 64.3-34.55 69.55-10.25 74.45-34.55 82.8-34.55ZM106.14-18.3Q109.54-17.6 111.59-15.7 113.64-13.8 113.64-9.95L113.64-9.95Q113.64-4.75 110.07-2.38 106.49 0 100.24 0L100.24 0 90.79 0 90.79-34.55 99.04-34.55Q105.44-34.55 108.87-32.38 112.29-30.2 112.29-25.75L112.29-25.75Q112.29-22.75 110.57-20.88 108.84-19 106.14-18.3L106.14-18.3ZM99.64-29.8L97.29-29.8 97.29-20.3 100.24-20.3Q102.94-20.3 104.34-21.55 105.74-22.8 105.74-25.2L105.74-25.2Q105.74-27.65 104.27-28.73 102.79-29.8 99.64-29.8L99.64-29.8ZM100.29-4.85Q103.54-4.85 105.24-6.05 106.94-7.25 106.94-10.2L106.94-10.2Q106.94-15.8 100.69-15.8L100.69-15.8 97.29-15.8 97.29-4.85 100.29-4.85ZM141.94 0L135.24 0 133.34-8.05 123.34-8.05 121.44 0 114.89 0 124.49-34.55 132.39-34.55 141.94 0ZM128.34-29.6L124.44-12.95 132.24-12.95 128.34-29.6ZM142.24-34.55L165.64-34.55 164.94-29.45 156.99-29.45 156.99 0 150.54 0 150.54-29.45 142.24-29.45 142.24-34.55ZM192.69 0L185.99 0 184.09-8.05 174.09-8.05 172.19 0 165.64 0 175.24-34.55 183.14-34.55 192.69 0ZM179.09-29.6L175.19-12.95 182.99-12.95 179.09-29.6Z" opacity="1" transform="matrix(1,0,0,1,0,0)" fill="#ffffff" className="undefined-text-0" data-fill-palette-color="primary" id="text-0"></path></svg></g></svg></g></svg></g></svg></g><g transform="matrix(1,0,0,1,439.31506507540985,0)"><svg viewBox="0 0 244.43135999999998 244.43135999999998" height="244.43135999999998" width="244.43135999999998"><g><svg viewBox="0 0 244.43135999999998 244.43135999999998" height="244.43135999999998" width="244.43135999999998"><g transform="matrix(1,0,0,1,64.60265593644993,83.90043842604227)"><svg viewBox="0 0 115.22604812710013 76.63048314791544" height="76.63048314791544" width="115.22604812710013"><g><svg xmlns="http://www.w3.org/2000/svg" xmlns:xlink="http://www.w3.org/1999/xlink" version="1.1" x="0" y="0" viewBox="7.599999904632568 21.80000114440918 84.80632019042969 56.400001525878906" enableBackground="new 0 0 100 100" xmlSpace="preserve" height="76.63048314791544" width="115.22604812710013" className="icon-s-0" data-fill-palette-color="accent" id="s-0"><path d="M68.9 25.9c-0.1-1.3 1-2.5 2.3-2.6l13.3-0.7c0.7 0 1.4 0.2 1.9 0.7 0.5 0.5 0.7 1.2 0.7 1.9l-0.7 13.3c-0.1 1.3-1.1 2.3-2.4 2.3 0 0-0.1 0-0.1 0-1.3-0.1-2.4-1.2-2.3-2.6L82 27.6l-10.6 0.6C70 28.3 68.9 27.2 68.9 25.9zM90 73.4H15.8l10.8-10.8 4.2 4.2c0.9 0.9 2.5 0.9 3.5 0l11.9-11.9 4.2 4.2c0.5 0.5 1.1 0.7 1.7 0.7 0.6 0 1.3-0.3 1.7-0.7l25.8-25.8c1-1 1-2.5 0-3.5-1-1-2.5-1-3.5 0l-24 24-4.2-4.2c-0.5-0.5-1.1-0.7-1.7-0.7-0.6 0-1.3 0.3-1.7 0.7L32.6 61.6l-4.2-4.2c-0.5-0.5-1.1-0.7-1.7-0.7s-1.3 0.3-1.7 0.7L12.4 69.9V24.2c0-1.3-1.1-2.4-2.4-2.4s-2.4 1.1-2.4 2.4v51.6c0 1.3 1.1 2.4 2.4 2.4H90c1.3 0 2.4-1.1 2.4-2.4C92.5 74.5 91.4 73.4 90 73.4z" fill="#ff9966" data-fill-palette-color="accent"></path></svg></g></svg></g><path d="M30.622 156.682c0.443 1.316 0.62 2.539 0.531 3.669-0.087 1.137-0.417 2.268-0.992 3.394v0l-2.76-1.142c0.357-0.856 0.565-1.662 0.626-2.419 0.057-0.748-0.043-1.503-0.3-2.264v0c-0.282-0.837-0.729-1.437-1.342-1.799-0.606-0.364-1.3-0.414-2.08-0.151v0c-0.523 0.176-0.928 0.428-1.217 0.757-0.289 0.329-0.496 0.816-0.623 1.461-0.132 0.647-0.206 1.542-0.222 2.682v0c-0.054 2.086-0.397 3.744-1.027 4.973-0.633 1.222-1.831 2.131-3.593 2.724v0c-1.215 0.409-2.402 0.486-3.56 0.231-1.152-0.257-2.185-0.838-3.1-1.742-0.921-0.903-1.627-2.084-2.119-3.545v0c-0.922-2.739-0.752-5.344 0.511-7.816v0l2.856 1.236c-0.405 0.984-0.651 1.908-0.738 2.772-0.088 0.864 0.02 1.746 0.323 2.646v0c0.343 1.02 0.895 1.731 1.655 2.134 0.757 0.397 1.624 0.431 2.599 0.102v0c0.881-0.297 1.493-0.78 1.836-1.448 0.342-0.669 0.517-1.786 0.522-3.352v0c0.027-2.231 0.373-3.949 1.04-5.155 0.66-1.204 1.739-2.058 3.238-2.562v0c1.102-0.371 2.181-0.423 3.239-0.155 1.057 0.268 2 0.819 2.828 1.655 0.828 0.836 1.451 1.874 1.869 3.114zM52.595 193.215l2.831 3.149-14.322 4.37-6.164 5.543-2.752-3.06 6.142-5.523 5.903-13.778 2.945 3.275-4.897 9.844zM91.59 217.871l-7.535 20.578-3.585-1.602 3.329-8.597c1.287-3.303 2.236-5.64 2.848-7.011v0l0.568-1.198-9.562 12.95-3.494-1.561 3.106-15.867c-0.247 0.603-0.638 1.501-1.171 2.696v0c-0.902 2.02-1.769 3.862-2.601 5.528v0l-4.113 8.105-3.548-1.585 10.301-19.343 4.767 2.13-3.242 15.392 9.101-12.774zM128.42 232.716c1.439 0.272 2.596 0.804 3.471 1.595 0.875 0.791 1.324 1.998 1.347 3.618v0c0.031 2.192-0.7 3.8-2.194 4.824-1.494 1.024-3.559 1.555-6.195 1.593v0l-5.978 0.085-0.311-21.86 5.22-0.074c2.697-0.038 4.776 0.39 6.237 1.287 1.454 0.896 2.195 2.284 2.222 4.164v0c0.018 1.262-0.329 2.293-1.042 3.094-0.719 0.801-1.645 1.359-2.777 1.674zM124.202 225.501l-1.485 0.021 0.086 6.008 1.863-0.027c1.142-0.016 2.006-0.291 2.589-0.824 0.577-0.54 0.858-1.314 0.844-2.324v0c-0.015-1.036-0.334-1.776-0.958-2.218-0.631-0.443-1.61-0.655-2.939-0.636zM124.835 241.277c1.375-0.02 2.418-0.287 3.128-0.802 0.71-0.515 1.056-1.397 1.038-2.645v0c-0.034-2.358-1.369-3.518-4.006-3.481v0l-2.152 0.03 0.099 6.925zM180.492 229.392l-3.833 1.8-3.255-4.097-5.728 2.689 1.073 5.122-3.752 1.762-3.79-22.373 4.528-2.126zM164.746 216.09l2.244 10.593 4.465-2.097zM189.646 195.722l9.93-10.984 2.094 2.498-3.374 3.733 13.822 12.496-2.734 3.023-13.822-12.496-3.521 3.895zM237.554 156.122l-1.386 4.002-5.206-0.527-2.07 5.979 4.417 2.806-1.357 3.917-18.669-12.898 1.637-4.727zM217.038 158.118l9.154 5.785 1.614-4.661z" fill="#ff9966" data-fill-palette-color="accent"></path><path d="M4.511 83.953C4.943 82.662 5.527 81.6 6.262 80.767 6.994 79.94 7.921 79.256 9.041 78.714V78.714L10.508 81.234C9.726 81.687 9.091 82.192 8.603 82.75 8.11 83.299 7.738 83.949 7.487 84.698V84.698C7.213 85.517 7.209 86.248 7.477 86.891 7.736 87.539 8.247 87.99 9.009 88.246V88.246C9.519 88.417 9.986 88.458 10.408 88.368 10.831 88.278 11.282 88.02 11.761 87.592 12.241 87.164 12.824 86.512 13.51 85.635V85.635C14.788 84.038 16.037 82.947 17.256 82.361 18.473 81.781 19.945 81.781 21.671 82.359V82.359C22.861 82.758 23.831 83.398 24.579 84.28 25.334 85.163 25.799 86.23 25.976 87.48 26.161 88.726 26.013 90.064 25.534 91.494V91.494C24.635 94.177 22.96 96.11 20.511 97.293V97.293L19.025 94.641C19.917 94.113 20.653 93.536 21.234 92.911 21.815 92.286 22.252 91.536 22.545 90.66V90.66C22.881 89.659 22.872 88.777 22.518 88.013 22.162 87.257 21.503 86.717 20.539 86.394V86.394C19.682 86.106 18.921 86.121 18.254 86.437 17.592 86.762 16.798 87.532 15.871 88.749V88.749C14.53 90.471 13.246 91.607 12.018 92.155 10.784 92.701 9.433 92.728 7.966 92.236V92.236C6.889 91.875 6.017 91.278 5.35 90.445 4.684 89.612 4.275 88.628 4.123 87.491 3.974 86.348 4.103 85.168 4.511 83.953ZM32.754 38.34L35.53 35.248 41.28 48.74 47.316 54.159 44.627 57.155 38.613 51.756 24.586 47.438 27.462 44.235 37.555 47.967ZM80.61 7.112L90.704 26.045 87.202 27.611 83.097 19.579C81.527 16.476 80.443 14.257 79.846 12.923V12.923L79.341 11.719 82.543 27.152 79.122 28.681 69.578 16.053C69.856 16.627 70.257 17.499 70.781 18.669V18.669C71.665 20.646 72.439 22.483 73.103 24.18V24.18L76.341 32.469 72.866 34.023 65.483 13.878 70.149 11.791 79.262 24.209 75.889 9.224ZM128.535 10.196C129.933 10.508 131.048 11.061 131.88 11.857 132.72 12.653 133.128 13.844 133.106 15.432V15.432C133.076 17.584 132.317 19.138 130.829 20.094 129.334 21.056 127.298 21.519 124.72 21.483V21.483L118.862 21.402 119.16 0 124.272 0.071C126.915 0.108 128.938 0.585 130.341 1.501 131.743 2.424 132.431 3.803 132.406 5.636V5.636C132.388 6.878 132.019 7.879 131.297 8.64 130.576 9.407 129.655 9.926 128.535 10.196ZM124.609 3.016L123.155 2.996 123.073 8.884 124.896 8.909C126.012 8.925 126.862 8.678 127.447 8.168 128.032 7.664 128.332 6.914 128.346 5.918V5.918C128.36 4.908 128.064 4.177 127.46 3.723 126.855 3.27 125.905 3.034 124.609 3.016ZM124.792 18.485C126.134 18.503 127.16 18.269 127.871 17.78 128.576 17.292 128.936 16.44 128.953 15.224V15.224C128.986 12.913 127.713 11.739 125.136 11.703V11.703L123.034 11.674 122.939 18.459ZM173.452 34.79L169.699 33.028 170.752 28.018 165.142 25.385 161.96 29.395 158.289 27.671 172.761 10.82 177.199 12.904ZM173.621 14.615L167.047 22.921 171.422 24.975ZM209.79 35.824L219.504 46.587 216.866 48.378 213.567 44.724 200.023 56.948 197.346 53.982 210.89 41.757 207.445 37.94ZM222.057 98.563L220.707 94.644 225.034 91.909 223.015 86.049 217.921 86.561 216.6 82.726 238.771 81.369 240.368 86.004ZM236.648 84.629L226.109 85.7 227.683 90.269Z" fill="#ff9966" data-fill-palette-color="accent"></path><path d="M2.782 124.641c0-4.612 3.739-8.351 8.352-8.352 4.612 0 8.351 3.739 8.351 8.352 0 4.612-3.739 8.351-8.351 8.351-4.612 0-8.351-3.739-8.352-8.351zM224.946 124.641c0-4.612 3.739-8.351 8.352-8.352 4.612 0 8.351 3.739 8.351 8.352 0 4.612-3.739 8.351-8.351 8.351-4.612 0-8.351-3.739-8.352-8.351z" fill="#ff9966" data-fill-palette-color="accent"></path></svg></g></svg></g></svg></g><defs></defs></svg><rect width="395.52" height="141.39377986003734" fill="none" stroke="none" visibility="hidden"></rect></g></svg></g></svg>